# xmcd
# Track frame offsets:
# 182
# 15155
# 26270
# 43332
# 58732
# 72847
# 83695
# 96102
# 106540
# 122417
#
# Disc length: 1790 seconds
# Revision: 0
# Processed by: cddbd v1.4PL0 Copyright (c) Steve Scherf et al.
# Submitted via: VisiTrax 2.9.5.180 - For more info visit www.synapsa.com
#
DISCID=6b06fc0a
DTITLE=Jett Williams - That reminds me of Hank
DYEAR=1900
DGENRE=Country
TTITLE0=That reminds me of Hank
TTITLE1=What'll I do
TTITLE2=Slow hurry
TTITLE3=A million teardrops
TTITLE4=Mansion on the hill
TTITLE5=Oakie boogie
TTITLE6=All My heros
TTITLE7=Jambalaya
TTITLE8=Baby blues
TTITLE9=Bill Bailey
EXTD=
EXTT0=
EXTT1=
EXTT2=
EXTT3=
EXTT4=
EXTT5=
EXTT6=
EXTT7=
EXTT8=
EXTT9=
PLAYORDER=
